<svg width="24" height="24" viewBox="0 0 24 24" fill="none" xmlns="http://www.w3.org/2000/svg">
<rect x="0.5" y="0.5" width="23" height="23" rx="7.5" fill="#FF6937" stroke="#F5F5F5"/>
<g clip-path="url(#clip0_2371_63373)">
<path d="M16.806 15.4281C16.806 15.5592 16.7456 15.6681 16.6814 15.7589L15.1094 17.8833C15.0431 17.9498 14.9554 17.9906 14.8618 17.9983C14.7682 18.0059 14.675 17.9801 14.5988 17.9252L12.2936 16.2755H8.97584C8.4849 16.2755 8.01407 16.0805 7.66693 15.7334C7.31978 15.3862 7.12476 14.9154 7.12476 14.4245V10.026C7.12423 9.64166 7.24381 9.26675 7.46678 8.95367L9.00669 6.83929L9.11669 6.68823V6.68738C9.28995 6.47255 9.50918 6.2993 9.75824 6.18039C10.0073 6.06147 10.2799 5.99992 10.5558 6.00025H14.9548C15.9772 6.00025 16.8059 6.82898 16.8059 7.85132L16.806 15.4281Z" fill="black"/>
<path d="M14.0436 13.5734H10.5566C10.3828 13.5734 10.2106 13.5391 10.0501 13.4726C9.88949 13.4061 9.74359 13.3086 9.62068 13.1857C9.37247 12.9375 9.23303 12.6009 9.23303 12.2498V7.85097C9.23302 7.67715 9.26724 7.50504 9.33375 7.34445C9.40026 7.18386 9.49774 7.03794 9.62065 6.91503C9.74355 6.79212 9.88946 6.69462 10.05 6.6281C10.2106 6.56158 10.3827 6.52734 10.5566 6.52734H14.9551C15.1289 6.52734 15.301 6.56158 15.4616 6.62809C15.6222 6.6946 15.7681 6.79209 15.891 6.91499C16.0139 7.03789 16.1114 7.1838 16.1779 7.34438C16.2444 7.50495 16.2787 7.67706 16.2787 7.85087V14.3987C16.2787 14.7225 15.9125 14.9107 15.6492 14.7222L14.0436 13.5734Z" fill="white"/>
</g>
<defs>
<clipPath id="clip0_2371_63373">
<rect width="9.68094" height="12" fill="white" transform="translate(7.125 6)"/>
</clipPath>
</defs>
</svg>
